<?xml version="1.0"?>
<svg width="640" height="480" xmlns="http://www.w3.org/2000/svg" xmlns:svg="http://www.w3.org/2000/svg">
 <!-- Created with SVG-edit - http://svg-edit.googlecode.com/ -->
 <g>
  <title>Layer 1</title>
  <polygon stroke-width="5" stroke="#000000" points="486,75.18666446934742 Infinity,-Infinity 626.1344592406402,317.90666776532623 Infinity,Infinity 345.86554075935976,317.90666776532635 -Infinity,-Infinity 485.99999999999994,75.18666446934742 Infinity,-Infinity " fill="#FF0000" id="svg_2"/>
  <polygon stroke-width="5" stroke="#000000" points="234,76.23381446755509 Infinity,-Infinity 322.9981273211221,230.38309276622243 Infinity,Infinity 145.00187267887787,230.3830927662225 -Infinity,-Infinity 233.99999999999997,76.23381446755509 Infinity,-Infinity " fill="#FF0000" id="svg_3"/>
  <polygon stroke-width="5" stroke="#000000" points="143.9999999999999,58.87551230895248 Infinity,NaN 143.9999999999999,191.79115435771428 -Infinity,Infinity 143.9999999999999,58.87551230895248 Infinity,-Infinity " fill="#FF0000" id="svg_4"/>
  <polygon stroke="#c06000" stroke-width="5" points="318.3545608520508,44.27888107299805 342.37564849853516,85.88465881347656 366.39676666259766,127.49044036865234 318.3545608520508,127.49044036865234 270.31217193603516,127.49044036865234 294.33338165283203,85.88465881347656 318.3545608520508,44.27888107299805 342.37564849853516,85.88465881347656 " fill="#ffe100" id="svg_11"/>
  <ellipse ry="98.66667" rx="98.66667" id="svg_14" cy="240" cx="318.35447" stroke-linecap="null" stroke-linejoin="null" stroke-dasharray="null" stroke-width="5" stroke="#c06000" fill="#ffe100"/>
  <polygon transform="rotate(180 318.3544616699219,402.66668701171875) " id="svg_15" stroke="#c06000" stroke-width="5" points="318.3545608520508,361.0609130859375 342.37564849853516,402.66668701171875 366.39676666259766,444.2724609375 318.3545608520508,444.2724609375 270.31217193603516,444.2724609375 294.33338165283203,402.66668701171875 318.3545608520508,361.0609130859375 342.37564849853516,402.66668701171875 " fill="#ffe100"/>
  <polygon transform="rotate(60 456.6666564941406,162.94232177734375) " id="svg_16" stroke="#c06000" stroke-width="5" points="456.666748046875,121.3365478515625 480.6878356933594,162.94232177734375 504.7089538574219,204.54811096191406 456.666748046875,204.54811096191406 408.6243591308594,204.54811096191406 432.64556884765625,162.94232177734375 456.666748046875,121.3365478515625 480.6878356933594,162.94232177734375 " fill="#ffe100"/>
  <polygon id="svg_17" transform="rotate(120 456.6666870117187,322.3910217285156) " stroke="#c06000" stroke-width="5" points="456.6667938232422,280.7852478027344 480.68788146972656,322.3910217285156 504.70899963378906,363.9967956542969 456.6667938232422,363.9967956542969 408.62440490722656,363.9967956542969 432.64561462402344,322.3910217285156 456.6667938232422,280.7852478027344 480.68788146972656,322.3910217285156 " fill="#ffe100"/>
  <polygon id="svg_18" transform="rotate(60 203.34375000000006,160.27563476562497) " stroke="#c06000" stroke-width="5" points="203.3438367843628,118.66986083984375 227.3649091720581,160.275634765625 251.38599681854248,201.8814239501953 203.3438367843628,201.8814239501953 155.30150890350342,201.8814239501953 179.32268810272217,160.275634765625 203.3438367843628,118.66986083984375 227.3649091720581,160.275634765625 " fill="#ffe100"/>
  <polygon id="svg_19" transform="rotate(120 203.34378051757812,319.7243347167969) " stroke="#c06000" stroke-width="5" points="203.34386730194092,278.1185607910156 227.36497020721436,319.7243347167969 251.3860273361206,361.3301086425781 203.34386730194092,361.3301086425781 155.30153942108154,361.3301086425781 179.32274913787842,319.7243347167969 203.34386730194092,278.1185607910156 227.36497020721436,319.7243347167969 " fill="#ffe100"/>
 </g>
</svg>
